<mxfile host="Electron" agent="Mozilla/5.0 (Windows NT 10.0; Win64; x64) AppleWebKit/537.36 (KHTML, like Gecko) draw.io/25.0.2 Chrome/128.0.6613.186 Electron/32.2.5 Safari/537.36" version="25.0.2">
  <diagram name="Страница — 1" id="looC5EfDoeOCi-nMsQs_">
    <mxGraphModel dx="1194" dy="1983" grid="1" gridSize="10" guides="1" tooltips="1" connect="1" arrows="1" fold="1" page="1" pageScale="1" pageWidth="827" pageHeight="1169" math="0" shadow="0">
      <root>
        <mxCell id="0" />
        <mxCell id="1" parent="0" />
        <mxCell id="Z0CkFsZ4bksT8Apnrx_z-1" value="Администратор" style="shape=umlActor;verticalLabelPosition=bottom;verticalAlign=top;html=1;outlineConnect=0;" parent="1" vertex="1">
          <mxGeometry x="420" y="370" width="30" height="60" as="geometry" />
        </mxCell>
        <mxCell id="Z0CkFsZ4bksT8Apnrx_z-4" value="Гость" style="shape=umlActor;verticalLabelPosition=bottom;verticalAlign=top;html=1;outlineConnect=0;" parent="1" vertex="1">
          <mxGeometry x="180" y="90" width="30" height="60" as="geometry" />
        </mxCell>
        <mxCell id="Z0CkFsZ4bksT8Apnrx_z-5" value="Оценщик" style="shape=umlActor;verticalLabelPosition=bottom;verticalAlign=top;html=1;outlineConnect=0;" parent="1" vertex="1">
          <mxGeometry x="540" y="130" width="30" height="60" as="geometry" />
        </mxCell>
        <mxCell id="Z0CkFsZ4bksT8Apnrx_z-11" value="&lt;font style=&quot;font-size: 11px;&quot;&gt;Управление учётной записью&lt;/font&gt;" style="ellipse;whiteSpace=wrap;html=1;" parent="1" vertex="1">
          <mxGeometry x="290" y="210" width="100" height="60" as="geometry" />
        </mxCell>
        <mxCell id="Z0CkFsZ4bksT8Apnrx_z-12" value="" style="endArrow=none;html=1;rounded=0;" parent="1" source="Z0CkFsZ4bksT8Apnrx_z-11" target="Z0CkFsZ4bksT8Apnrx_z-1" edge="1">
          <mxGeometry width="50" height="50" relative="1" as="geometry">
            <mxPoint x="300" y="560" as="sourcePoint" />
            <mxPoint x="350" y="510" as="targetPoint" />
          </mxGeometry>
        </mxCell>
        <mxCell id="Z0CkFsZ4bksT8Apnrx_z-13" value="" style="endArrow=none;html=1;rounded=0;" parent="1" source="Z0CkFsZ4bksT8Apnrx_z-4" target="Z0CkFsZ4bksT8Apnrx_z-11" edge="1">
          <mxGeometry width="50" height="50" relative="1" as="geometry">
            <mxPoint x="60" y="140" as="sourcePoint" />
            <mxPoint x="110" y="90" as="targetPoint" />
          </mxGeometry>
        </mxCell>
        <mxCell id="Z0CkFsZ4bksT8Apnrx_z-14" value="" style="endArrow=none;html=1;rounded=0;" parent="1" source="Z0CkFsZ4bksT8Apnrx_z-11" target="Z0CkFsZ4bksT8Apnrx_z-5" edge="1">
          <mxGeometry width="50" height="50" relative="1" as="geometry">
            <mxPoint x="650" y="190" as="sourcePoint" />
            <mxPoint x="700" y="140" as="targetPoint" />
          </mxGeometry>
        </mxCell>
        <mxCell id="Z0CkFsZ4bksT8Apnrx_z-17" value="&lt;font style=&quot;font-size: 11px;&quot;&gt;Оценить недвижимость&lt;/font&gt;" style="ellipse;whiteSpace=wrap;html=1;" parent="1" vertex="1">
          <mxGeometry x="610" y="100" width="90" height="50" as="geometry" />
        </mxCell>
        <mxCell id="Z0CkFsZ4bksT8Apnrx_z-18" value="&lt;font style=&quot;font-size: 9px;&quot;&gt;Просмотр списка недвижимости&lt;/font&gt;" style="ellipse;whiteSpace=wrap;html=1;" parent="1" vertex="1">
          <mxGeometry x="350" y="95" width="90" height="50" as="geometry" />
        </mxCell>
        <mxCell id="Z0CkFsZ4bksT8Apnrx_z-20" value="" style="endArrow=none;html=1;rounded=0;" parent="1" source="Z0CkFsZ4bksT8Apnrx_z-4" target="Z0CkFsZ4bksT8Apnrx_z-18" edge="1">
          <mxGeometry width="50" height="50" relative="1" as="geometry">
            <mxPoint x="60" y="140" as="sourcePoint" />
            <mxPoint x="100" y="80" as="targetPoint" />
          </mxGeometry>
        </mxCell>
        <mxCell id="Z0CkFsZ4bksT8Apnrx_z-21" value="" style="endArrow=none;html=1;rounded=0;" parent="1" source="Z0CkFsZ4bksT8Apnrx_z-18" target="Z0CkFsZ4bksT8Apnrx_z-5" edge="1">
          <mxGeometry width="50" height="50" relative="1" as="geometry">
            <mxPoint x="450" y="320" as="sourcePoint" />
            <mxPoint x="500" y="270" as="targetPoint" />
          </mxGeometry>
        </mxCell>
        <mxCell id="Z0CkFsZ4bksT8Apnrx_z-25" value="" style="endArrow=none;html=1;rounded=0;" parent="1" source="Z0CkFsZ4bksT8Apnrx_z-17" target="Z0CkFsZ4bksT8Apnrx_z-5" edge="1">
          <mxGeometry width="50" height="50" relative="1" as="geometry">
            <mxPoint x="560" y="330" as="sourcePoint" />
            <mxPoint x="610" y="280" as="targetPoint" />
          </mxGeometry>
        </mxCell>
        <mxCell id="Z0CkFsZ4bksT8Apnrx_z-26" value="&lt;font style=&quot;font-size: 10px;&quot;&gt;Управление учётными записями&lt;/font&gt;" style="ellipse;whiteSpace=wrap;html=1;" parent="1" vertex="1">
          <mxGeometry x="520" y="310" width="90" height="50" as="geometry" />
        </mxCell>
        <mxCell id="Z0CkFsZ4bksT8Apnrx_z-27" value="" style="endArrow=none;html=1;rounded=0;" parent="1" source="Z0CkFsZ4bksT8Apnrx_z-1" target="Z0CkFsZ4bksT8Apnrx_z-26" edge="1">
          <mxGeometry width="50" height="50" relative="1" as="geometry">
            <mxPoint x="450" y="510" as="sourcePoint" />
            <mxPoint x="500" y="460" as="targetPoint" />
          </mxGeometry>
        </mxCell>
        <mxCell id="Z0CkFsZ4bksT8Apnrx_z-28" value="&lt;span style=&quot;font-size: 10px;&quot;&gt;Добавление&lt;/span&gt;" style="ellipse;whiteSpace=wrap;html=1;" parent="1" vertex="1">
          <mxGeometry x="690" y="240" width="90" height="50" as="geometry" />
        </mxCell>
        <mxCell id="Z0CkFsZ4bksT8Apnrx_z-29" value="&lt;span style=&quot;font-size: 10px;&quot;&gt;Удаление&lt;/span&gt;&lt;span style=&quot;color: rgba(0, 0, 0, 0); font-family: monospace; font-size: 0px; text-align: start; text-wrap: nowrap;&quot;&gt;%3CmxGraphModel%3E%3Croot%3E%3CmxCell%20id%3D%220%22%2F%3E%3CmxCell%20id%3D%221%22%20parent%3D%220%22%2F%3E%3CmxCell%20id%3D%222%22%20value%3D%22%26lt%3Bspan%20style%3D%26quot%3Bfont-size%3A%2010px%3B%26quot%3B%26gt%3B%D0%94%D0%BE%D0%B1%D0%B0%D0%B2%D0%BB%D0%B5%D0%BD%D0%B8%D0%B5%26lt%3B%2Fspan%26gt%3B%22%20style%3D%22ellipse%3BwhiteSpace%3Dwrap%3Bhtml%3D1%3B%22%20vertex%3D%221%22%20parent%3D%221%22%3E%3CmxGeometry%20x%3D%22630%22%20y%3D%22380%22%20width%3D%2290%22%20height%3D%2250%22%20as%3D%22geometry%22%2F%3E%3C%2FmxCell%3E%3C%2Froot%3E%3C%2FmxGraphModel%3E&lt;/span&gt;" style="ellipse;whiteSpace=wrap;html=1;" parent="1" vertex="1">
          <mxGeometry x="710" y="300" width="90" height="50" as="geometry" />
        </mxCell>
        <mxCell id="Z0CkFsZ4bksT8Apnrx_z-30" value="&lt;span style=&quot;font-size: 10px;&quot;&gt;Изменение&lt;/span&gt;" style="ellipse;whiteSpace=wrap;html=1;" parent="1" vertex="1">
          <mxGeometry x="670" y="375" width="90" height="50" as="geometry" />
        </mxCell>
        <mxCell id="Z0CkFsZ4bksT8Apnrx_z-31" value="&lt;span style=&quot;font-size: 10px;&quot;&gt;Изменение пароля&lt;/span&gt;" style="ellipse;whiteSpace=wrap;html=1;" parent="1" vertex="1">
          <mxGeometry x="830" y="375" width="100" height="50" as="geometry" />
        </mxCell>
        <mxCell id="Z0CkFsZ4bksT8Apnrx_z-32" value="" style="endArrow=classic;html=1;rounded=0;dashed=1;" parent="1" source="Z0CkFsZ4bksT8Apnrx_z-26" target="Z0CkFsZ4bksT8Apnrx_z-30" edge="1">
          <mxGeometry width="50" height="50" relative="1" as="geometry">
            <mxPoint x="600" y="350" as="sourcePoint" />
            <mxPoint x="650" y="300" as="targetPoint" />
          </mxGeometry>
        </mxCell>
        <mxCell id="Z0CkFsZ4bksT8Apnrx_z-33" value="" style="endArrow=classic;html=1;rounded=0;dashed=1;" parent="1" source="Z0CkFsZ4bksT8Apnrx_z-26" target="Z0CkFsZ4bksT8Apnrx_z-28" edge="1">
          <mxGeometry width="50" height="50" relative="1" as="geometry">
            <mxPoint x="580" y="240" as="sourcePoint" />
            <mxPoint x="630" y="190" as="targetPoint" />
          </mxGeometry>
        </mxCell>
        <mxCell id="Z0CkFsZ4bksT8Apnrx_z-34" value="" style="endArrow=classic;html=1;rounded=0;dashed=1;" parent="1" source="Z0CkFsZ4bksT8Apnrx_z-26" target="Z0CkFsZ4bksT8Apnrx_z-29" edge="1">
          <mxGeometry width="50" height="50" relative="1" as="geometry">
            <mxPoint x="580" y="260" as="sourcePoint" />
            <mxPoint x="630" y="210" as="targetPoint" />
          </mxGeometry>
        </mxCell>
        <mxCell id="Z0CkFsZ4bksT8Apnrx_z-35" value="" style="endArrow=classic;html=1;rounded=0;dashed=1;" parent="1" source="Z0CkFsZ4bksT8Apnrx_z-30" target="Z0CkFsZ4bksT8Apnrx_z-31" edge="1">
          <mxGeometry width="50" height="50" relative="1" as="geometry">
            <mxPoint x="750" y="475" as="sourcePoint" />
            <mxPoint x="800" y="425" as="targetPoint" />
          </mxGeometry>
        </mxCell>
        <mxCell id="Z0CkFsZ4bksT8Apnrx_z-36" value="&amp;lt;&amp;lt;include&amp;gt;&amp;gt;" style="text;html=1;align=center;verticalAlign=middle;resizable=0;points=[];autosize=1;strokeColor=none;fillColor=none;" parent="1" vertex="1">
          <mxGeometry x="580" y="360" width="90" height="30" as="geometry" />
        </mxCell>
        <mxCell id="Z0CkFsZ4bksT8Apnrx_z-37" value="&amp;lt;&amp;lt;include&amp;gt;&amp;gt;" style="text;html=1;align=center;verticalAlign=middle;resizable=0;points=[];autosize=1;strokeColor=none;fillColor=none;" parent="1" vertex="1">
          <mxGeometry x="590" y="270" width="90" height="30" as="geometry" />
        </mxCell>
        <mxCell id="Z0CkFsZ4bksT8Apnrx_z-38" value="&amp;lt;&amp;lt;include&amp;gt;&amp;gt;" style="text;html=1;align=center;verticalAlign=middle;resizable=0;points=[];autosize=1;strokeColor=none;fillColor=none;" parent="1" vertex="1">
          <mxGeometry x="620" y="330" width="90" height="30" as="geometry" />
        </mxCell>
        <mxCell id="Z0CkFsZ4bksT8Apnrx_z-39" value="&amp;lt;&amp;lt;include&amp;gt;&amp;gt;" style="text;html=1;align=center;verticalAlign=middle;resizable=0;points=[];autosize=1;strokeColor=none;fillColor=none;" parent="1" vertex="1">
          <mxGeometry x="750" y="400" width="90" height="30" as="geometry" />
        </mxCell>
        <mxCell id="Z0CkFsZ4bksT8Apnrx_z-40" value="&lt;span style=&quot;font-size: 10px;&quot;&gt;Управление доступом&lt;/span&gt;" style="ellipse;whiteSpace=wrap;html=1;" parent="1" vertex="1">
          <mxGeometry x="560" y="415" width="90" height="50" as="geometry" />
        </mxCell>
        <mxCell id="Z0CkFsZ4bksT8Apnrx_z-41" value="" style="endArrow=classic;html=1;rounded=0;dashed=1;" parent="1" source="Z0CkFsZ4bksT8Apnrx_z-26" target="Z0CkFsZ4bksT8Apnrx_z-40" edge="1">
          <mxGeometry width="50" height="50" relative="1" as="geometry">
            <mxPoint x="530" y="473" as="sourcePoint" />
            <mxPoint x="550" y="350" as="targetPoint" />
          </mxGeometry>
        </mxCell>
        <mxCell id="Z0CkFsZ4bksT8Apnrx_z-42" value="&amp;lt;&amp;lt;include&amp;gt;&amp;gt;" style="text;html=1;align=center;verticalAlign=middle;resizable=0;points=[];autosize=1;strokeColor=none;fillColor=none;" parent="1" vertex="1">
          <mxGeometry x="510" y="460" width="90" height="30" as="geometry" />
        </mxCell>
        <mxCell id="Z0CkFsZ4bksT8Apnrx_z-43" value="&lt;span style=&quot;font-size: 10px;&quot;&gt;Предоставление&lt;/span&gt;" style="ellipse;whiteSpace=wrap;html=1;" parent="1" vertex="1">
          <mxGeometry x="660" y="480" width="90" height="50" as="geometry" />
        </mxCell>
        <mxCell id="Z0CkFsZ4bksT8Apnrx_z-44" value="" style="endArrow=classic;html=1;rounded=0;dashed=1;" parent="1" source="Z0CkFsZ4bksT8Apnrx_z-40" edge="1">
          <mxGeometry width="50" height="50" relative="1" as="geometry">
            <mxPoint x="644" y="465" as="sourcePoint" />
            <mxPoint x="676" y="486" as="targetPoint" />
          </mxGeometry>
        </mxCell>
        <mxCell id="Z0CkFsZ4bksT8Apnrx_z-45" value="&amp;lt;&amp;lt;include&amp;gt;&amp;gt;" style="text;html=1;align=center;verticalAlign=middle;resizable=0;points=[];autosize=1;strokeColor=none;fillColor=none;" parent="1" vertex="1">
          <mxGeometry x="630" y="450" width="90" height="30" as="geometry" />
        </mxCell>
        <mxCell id="Z0CkFsZ4bksT8Apnrx_z-46" value="&lt;font style=&quot;font-size: 14px;&quot;&gt;Отказ&lt;/font&gt;" style="ellipse;whiteSpace=wrap;html=1;" parent="1" vertex="1">
          <mxGeometry x="520" y="490" width="90" height="50" as="geometry" />
        </mxCell>
        <mxCell id="Z0CkFsZ4bksT8Apnrx_z-47" value="" style="endArrow=classic;html=1;rounded=0;dashed=1;" parent="1" source="Z0CkFsZ4bksT8Apnrx_z-40" target="Z0CkFsZ4bksT8Apnrx_z-46" edge="1">
          <mxGeometry width="50" height="50" relative="1" as="geometry">
            <mxPoint x="494" y="469" as="sourcePoint" />
            <mxPoint x="536" y="496" as="targetPoint" />
          </mxGeometry>
        </mxCell>
        <mxCell id="Z0CkFsZ4bksT8Apnrx_z-48" value="&amp;lt;&amp;lt;include&amp;gt;&amp;gt;" style="text;html=1;align=center;verticalAlign=middle;resizable=0;points=[];autosize=1;strokeColor=none;fillColor=none;" parent="1" vertex="1">
          <mxGeometry x="510" y="375" width="90" height="30" as="geometry" />
        </mxCell>
        <mxCell id="Z0CkFsZ4bksT8Apnrx_z-51" value="" style="endArrow=none;html=1;rounded=0;dashed=1;endFill=0;startArrow=classic;startFill=1;" parent="1" source="Z0CkFsZ4bksT8Apnrx_z-55" target="Z0CkFsZ4bksT8Apnrx_z-18" edge="1">
          <mxGeometry width="50" height="50" relative="1" as="geometry">
            <mxPoint x="409.8167202725872" y="97.13859657735861" as="sourcePoint" />
            <mxPoint x="490" y="60" as="targetPoint" />
          </mxGeometry>
        </mxCell>
        <mxCell id="Z0CkFsZ4bksT8Apnrx_z-54" value="" style="endArrow=none;html=1;rounded=0;dashed=1;endFill=0;startArrow=classic;startFill=1;" parent="1" source="Z0CkFsZ4bksT8Apnrx_z-56" target="Z0CkFsZ4bksT8Apnrx_z-18" edge="1">
          <mxGeometry width="50" height="50" relative="1" as="geometry">
            <mxPoint x="401.91154414287075" y="44.1020020108258" as="sourcePoint" />
            <mxPoint x="520" y="10" as="targetPoint" />
          </mxGeometry>
        </mxCell>
        <mxCell id="Z0CkFsZ4bksT8Apnrx_z-55" value="&lt;font style=&quot;font-size: 10px;&quot;&gt;Сортировка&lt;/font&gt;&lt;div style=&quot;font-size: 10px;&quot;&gt;&lt;font style=&quot;font-size: 10px;&quot;&gt;списка недвижимости&lt;/font&gt;&lt;/div&gt;" style="ellipse;whiteSpace=wrap;html=1;" parent="1" vertex="1">
          <mxGeometry x="410" y="-70" width="100" height="50" as="geometry" />
        </mxCell>
        <mxCell id="Z0CkFsZ4bksT8Apnrx_z-56" value="&lt;font style=&quot;font-size: 9px;&quot;&gt;Поиск в списке недвижимости&lt;/font&gt;" style="ellipse;whiteSpace=wrap;html=1;" parent="1" vertex="1">
          <mxGeometry x="290" y="-80" width="90" height="50" as="geometry" />
        </mxCell>
        <mxCell id="Z0CkFsZ4bksT8Apnrx_z-57" value="&amp;lt;&amp;lt;include&amp;gt;&amp;gt;" style="text;html=1;align=center;verticalAlign=middle;resizable=0;points=[];autosize=1;strokeColor=none;fillColor=none;" parent="1" vertex="1">
          <mxGeometry x="290" y="40" width="90" height="30" as="geometry" />
        </mxCell>
        <mxCell id="Z0CkFsZ4bksT8Apnrx_z-58" value="&amp;lt;&amp;lt;include&amp;gt;&amp;gt;" style="text;html=1;align=center;verticalAlign=middle;resizable=0;points=[];autosize=1;strokeColor=none;fillColor=none;" parent="1" vertex="1">
          <mxGeometry x="410" y="30" width="90" height="30" as="geometry" />
        </mxCell>
        <mxCell id="Z0CkFsZ4bksT8Apnrx_z-60" value="" style="endArrow=none;html=1;rounded=1;curved=0;" parent="1" source="Z0CkFsZ4bksT8Apnrx_z-1" target="Z0CkFsZ4bksT8Apnrx_z-18" edge="1">
          <mxGeometry width="50" height="50" relative="1" as="geometry">
            <mxPoint x="360" y="400" as="sourcePoint" />
            <mxPoint x="410" y="350" as="targetPoint" />
            <Array as="points">
              <mxPoint x="410" y="230" />
              <mxPoint x="420" y="210" />
              <mxPoint x="400" y="200" />
            </Array>
          </mxGeometry>
        </mxCell>
        <mxCell id="Z0CkFsZ4bksT8Apnrx_z-61" value="Регистрация" style="ellipse;whiteSpace=wrap;html=1;" parent="1" vertex="1">
          <mxGeometry x="200" y="330" width="90" height="50" as="geometry" />
        </mxCell>
        <mxCell id="Z0CkFsZ4bksT8Apnrx_z-64" value="" style="endArrow=classic;html=1;rounded=0;dashed=1;" parent="1" source="Z0CkFsZ4bksT8Apnrx_z-11" target="Z0CkFsZ4bksT8Apnrx_z-61" edge="1">
          <mxGeometry width="50" height="50" relative="1" as="geometry">
            <mxPoint x="279.99836501406276" y="340.00211434913473" as="sourcePoint" />
            <mxPoint x="246.0603327877293" y="402.1443898891633" as="targetPoint" />
          </mxGeometry>
        </mxCell>
        <mxCell id="Z0CkFsZ4bksT8Apnrx_z-65" value="&amp;lt;&amp;lt;include&amp;gt;&amp;gt;" style="text;html=1;align=center;verticalAlign=middle;resizable=0;points=[];autosize=1;strokeColor=none;fillColor=none;" parent="1" vertex="1">
          <mxGeometry x="270" y="295" width="90" height="30" as="geometry" />
        </mxCell>
        <mxCell id="Z0CkFsZ4bksT8Apnrx_z-66" value="Выход&amp;nbsp;" style="ellipse;whiteSpace=wrap;html=1;" parent="1" vertex="1">
          <mxGeometry x="120" y="275" width="90" height="50" as="geometry" />
        </mxCell>
        <mxCell id="Z0CkFsZ4bksT8Apnrx_z-67" value="" style="endArrow=classic;html=1;rounded=0;dashed=1;" parent="1" source="Z0CkFsZ4bksT8Apnrx_z-11" target="Z0CkFsZ4bksT8Apnrx_z-66" edge="1">
          <mxGeometry width="50" height="50" relative="1" as="geometry">
            <mxPoint x="270" y="320" as="sourcePoint" />
            <mxPoint x="127" y="340" as="targetPoint" />
          </mxGeometry>
        </mxCell>
        <mxCell id="Z0CkFsZ4bksT8Apnrx_z-68" value="&amp;lt;&amp;lt;include&amp;gt;&amp;gt;" style="text;html=1;align=center;verticalAlign=middle;resizable=0;points=[];autosize=1;strokeColor=none;fillColor=none;" parent="1" vertex="1">
          <mxGeometry x="180" y="245" width="90" height="30" as="geometry" />
        </mxCell>
        <mxCell id="oLm0E-2LTu-lEBx0v8ze-1" value="&lt;span style=&quot;font-size: 10px;&quot;&gt;Управление списком недвижимости&lt;/span&gt;" style="ellipse;whiteSpace=wrap;html=1;" parent="1" vertex="1">
          <mxGeometry x="270" y="460" width="110" height="60" as="geometry" />
        </mxCell>
        <mxCell id="oLm0E-2LTu-lEBx0v8ze-2" value="" style="endArrow=none;html=1;rounded=0;" parent="1" source="oLm0E-2LTu-lEBx0v8ze-1" target="Z0CkFsZ4bksT8Apnrx_z-1" edge="1">
          <mxGeometry width="50" height="50" relative="1" as="geometry">
            <mxPoint x="340" y="440" as="sourcePoint" />
            <mxPoint x="390" y="390" as="targetPoint" />
          </mxGeometry>
        </mxCell>
        <mxCell id="oLm0E-2LTu-lEBx0v8ze-9" value="&lt;span style=&quot;font-size: 10px;&quot;&gt;Добавление&lt;/span&gt;" style="ellipse;whiteSpace=wrap;html=1;" parent="1" vertex="1">
          <mxGeometry x="350" y="585" width="90" height="50" as="geometry" />
        </mxCell>
        <mxCell id="oLm0E-2LTu-lEBx0v8ze-10" value="&lt;span style=&quot;font-size: 10px;&quot;&gt;Удаление&lt;/span&gt;&lt;span style=&quot;color: rgba(0, 0, 0, 0); font-family: monospace; font-size: 0px; text-align: start; text-wrap: nowrap;&quot;&gt;%3CmxGraphModel%3E%3Croot%3E%3CmxCell%20id%3D%220%22%2F%3E%3CmxCell%20id%3D%221%22%20parent%3D%220%22%2F%3E%3CmxCell%20id%3D%222%22%20value%3D%22%26lt%3Bspan%20style%3D%26quot%3Bfont-size%3A%2010px%3B%26quot%3B%26gt%3B%D0%94%D0%BE%D0%B1%D0%B0%D0%B2%D0%BB%D0%B5%D0%BD%D0%B8%D0%B5%26lt%3B%2Fspan%26gt%3B%22%20style%3D%22ellipse%3BwhiteSpace%3Dwrap%3Bhtml%3D1%3B%22%20vertex%3D%221%22%20parent%3D%221%22%3E%3CmxGeometry%20x%3D%22630%22%20y%3D%22380%22%20width%3D%2290%22%20height%3D%2250%22%20as%3D%22geometry%22%2F%3E%3C%2FmxCell%3E%3C%2Froot%3E%3C%2FmxGraphModel%3E&lt;/span&gt;" style="ellipse;whiteSpace=wrap;html=1;" parent="1" vertex="1">
          <mxGeometry x="210" y="585" width="90" height="50" as="geometry" />
        </mxCell>
        <mxCell id="oLm0E-2LTu-lEBx0v8ze-13" value="" style="endArrow=classic;html=1;rounded=0;dashed=1;" parent="1" source="oLm0E-2LTu-lEBx0v8ze-1" target="oLm0E-2LTu-lEBx0v8ze-9" edge="1">
          <mxGeometry width="50" height="50" relative="1" as="geometry">
            <mxPoint x="297" y="680" as="sourcePoint" />
            <mxPoint x="326" y="550" as="targetPoint" />
          </mxGeometry>
        </mxCell>
        <mxCell id="oLm0E-2LTu-lEBx0v8ze-14" value="" style="endArrow=classic;html=1;rounded=0;dashed=1;" parent="1" source="oLm0E-2LTu-lEBx0v8ze-1" target="oLm0E-2LTu-lEBx0v8ze-10" edge="1">
          <mxGeometry width="50" height="50" relative="1" as="geometry">
            <mxPoint x="306" y="693" as="sourcePoint" />
            <mxPoint x="326" y="570" as="targetPoint" />
          </mxGeometry>
        </mxCell>
        <mxCell id="oLm0E-2LTu-lEBx0v8ze-19" value="&amp;lt;&amp;lt;include&amp;gt;&amp;gt;" style="text;html=1;align=center;verticalAlign=middle;resizable=0;points=[];autosize=1;strokeColor=none;fillColor=none;" parent="1" vertex="1">
          <mxGeometry x="360" y="530" width="90" height="30" as="geometry" />
        </mxCell>
        <mxCell id="oLm0E-2LTu-lEBx0v8ze-20" value="&amp;lt;&amp;lt;include&amp;gt;&amp;gt;" style="text;html=1;align=center;verticalAlign=middle;resizable=0;points=[];autosize=1;strokeColor=none;fillColor=none;" parent="1" vertex="1">
          <mxGeometry x="200" y="530" width="90" height="30" as="geometry" />
        </mxCell>
        <mxCell id="ayFaMC1T0aRtPbGzjvJs-1" value="Изменить пароль" style="ellipse;whiteSpace=wrap;html=1;" vertex="1" parent="1">
          <mxGeometry x="100" y="195" width="90" height="50" as="geometry" />
        </mxCell>
        <mxCell id="ayFaMC1T0aRtPbGzjvJs-2" value="" style="endArrow=classic;html=1;rounded=0;dashed=1;" edge="1" parent="1" target="ayFaMC1T0aRtPbGzjvJs-1" source="Z0CkFsZ4bksT8Apnrx_z-11">
          <mxGeometry width="50" height="50" relative="1" as="geometry">
            <mxPoint x="276" y="175" as="sourcePoint" />
            <mxPoint x="107" y="260" as="targetPoint" />
          </mxGeometry>
        </mxCell>
        <mxCell id="ayFaMC1T0aRtPbGzjvJs-3" value="&amp;lt;&amp;lt;include&amp;gt;&amp;gt;" style="text;html=1;align=center;verticalAlign=middle;resizable=0;points=[];autosize=1;strokeColor=none;fillColor=none;" vertex="1" parent="1">
          <mxGeometry x="200" y="195" width="90" height="30" as="geometry" />
        </mxCell>
      </root>
    </mxGraphModel>
  </diagram>
</mxfile>
